<mxfile host="app.diagrams.net" agent="Mozilla/5.0 (Windows NT 10.0; Win64; x64) AppleWebKit/537.36 (KHTML, like Gecko) Chrome/127.0.0.0 Safari/537.36" version="24.7.6">
  <diagram name="PÃ¡gina-1" id="tR5uD-cpqIz14159qTBs">
    <mxGraphModel dx="1032" dy="1105" grid="1" gridSize="10" guides="1" tooltips="1" connect="1" arrows="1" fold="1" page="1" pageScale="1" pageWidth="1169" pageHeight="827" math="0" shadow="0">
      <root>
        <mxCell id="0" />
        <mxCell id="1" parent="0" />
        <mxCell id="NUswJ1ts76lBLRc4Qxui-6" value="" style="edgeStyle=orthogonalEdgeStyle;rounded=0;orthogonalLoop=1;jettySize=auto;html=1;" edge="1" parent="1" source="NUswJ1ts76lBLRc4Qxui-1" target="NUswJ1ts76lBLRc4Qxui-5">
          <mxGeometry relative="1" as="geometry" />
        </mxCell>
        <mxCell id="NUswJ1ts76lBLRc4Qxui-7" value="DataAction" style="edgeLabel;html=1;align=center;verticalAlign=middle;resizable=0;points=[];" vertex="1" connectable="0" parent="NUswJ1ts76lBLRc4Qxui-6">
          <mxGeometry x="-0.2" y="-1" relative="1" as="geometry">
            <mxPoint x="14" y="-1" as="offset" />
          </mxGeometry>
        </mxCell>
        <mxCell id="NUswJ1ts76lBLRc4Qxui-1" value="IVR" style="shape=process;whiteSpace=wrap;html=1;backgroundOutline=1;" vertex="1" parent="1">
          <mxGeometry x="230" y="130" width="120" height="60" as="geometry" />
        </mxCell>
        <mxCell id="NUswJ1ts76lBLRc4Qxui-3" style="edgeStyle=orthogonalEdgeStyle;rounded=0;orthogonalLoop=1;jettySize=auto;html=1;entryX=0.5;entryY=0;entryDx=0;entryDy=0;" edge="1" parent="1" source="NUswJ1ts76lBLRc4Qxui-2" target="NUswJ1ts76lBLRc4Qxui-1">
          <mxGeometry relative="1" as="geometry" />
        </mxCell>
        <mxCell id="NUswJ1ts76lBLRc4Qxui-4" value="Numero Telefonico" style="edgeLabel;html=1;align=center;verticalAlign=middle;resizable=0;points=[];" vertex="1" connectable="0" parent="NUswJ1ts76lBLRc4Qxui-3">
          <mxGeometry x="0.1478" y="-4" relative="1" as="geometry">
            <mxPoint y="-5" as="offset" />
          </mxGeometry>
        </mxCell>
        <mxCell id="NUswJ1ts76lBLRc4Qxui-2" value="Actor" style="shape=umlActor;verticalLabelPosition=bottom;verticalAlign=top;html=1;outlineConnect=0;" vertex="1" parent="1">
          <mxGeometry x="70" y="60" width="30" height="60" as="geometry" />
        </mxCell>
        <mxCell id="NUswJ1ts76lBLRc4Qxui-11" style="edgeStyle=orthogonalEdgeStyle;rounded=0;orthogonalLoop=1;jettySize=auto;html=1;" edge="1" parent="1" source="NUswJ1ts76lBLRc4Qxui-5" target="NUswJ1ts76lBLRc4Qxui-9">
          <mxGeometry relative="1" as="geometry" />
        </mxCell>
        <mxCell id="NUswJ1ts76lBLRc4Qxui-5" value="Lambda" style="shape=process;whiteSpace=wrap;html=1;backgroundOutline=1;" vertex="1" parent="1">
          <mxGeometry x="540" y="130" width="120" height="60" as="geometry" />
        </mxCell>
        <mxCell id="NUswJ1ts76lBLRc4Qxui-9" value="Sharepoint" style="shape=process;whiteSpace=wrap;html=1;backgroundOutline=1;" vertex="1" parent="1">
          <mxGeometry x="540" y="290" width="120" height="60" as="geometry" />
        </mxCell>
        <mxCell id="NUswJ1ts76lBLRc4Qxui-12" value="1000 sol mensuales" style="text;html=1;align=center;verticalAlign=middle;whiteSpace=wrap;rounded=0;" vertex="1" parent="1">
          <mxGeometry x="710" y="305" width="60" height="30" as="geometry" />
        </mxCell>
        <mxCell id="NUswJ1ts76lBLRc4Qxui-15" style="edgeStyle=orthogonalEdgeStyle;rounded=0;orthogonalLoop=1;jettySize=auto;html=1;entryX=0;entryY=0.5;entryDx=0;entryDy=0;" edge="1" parent="1" source="NUswJ1ts76lBLRc4Qxui-14" target="NUswJ1ts76lBLRc4Qxui-9">
          <mxGeometry relative="1" as="geometry" />
        </mxCell>
        <mxCell id="NUswJ1ts76lBLRc4Qxui-14" value="Secret&amp;nbsp;&lt;div&gt;Manager&lt;/div&gt;" style="shape=step;perimeter=stepPerimeter;whiteSpace=wrap;html=1;fixedSize=1;" vertex="1" parent="1">
          <mxGeometry x="380" y="295" width="110" height="50" as="geometry" />
        </mxCell>
      </root>
    </mxGraphModel>
  </diagram>
</mxfile>
